<?xml version="1.0" encoding="UTF-8"?>
<svg id="a" width="100px" height="13.328px" version="1.1" viewBox="0 0 4925.3 656.43" xmlns="http://www.w3.org/2000/svg"><g id="b" transform="translate(9.2812 9.4766)" fill="#211e1e"><path id="c" d="m551.54 125.2-33.492 24.191c-21.383-29.402-45.844-54.801-73.387-76.18-27.543-21.383-61.078-32.586-100.6-33.605-73.543 0.86328-128.83 26.109-165.86 75.711-37.023 49.594-55.551 118.34-55.594 206.2 0 46.07 7.6523 89.359 22.984 129.85 15.332 40.492 38.359 73.43 69.098 98.828s69.199 38.492 115.41 39.285c45.262-0.55468 85.469-12.691 120.61-36.402 35.141-23.711 61.617-55.609 79.434-95.719l40.008 19.535c-27.738 56.336-63.902 97.195-108.51 122.59-44.609 25.387-95.891 37.879-153.87 37.453-57.398-0.72265-109.15-15.105-155.28-43.145-46.125-28.055-82.797-65.449-110-112.2-27.203-46.766-41.129-98.57-41.77-155.42 0.65625-64.652 15.066-121.33 43.219-170.03 28.152-48.711 66.129-86.703 113.92-114 47.805-27.301 101.5-41.172 161.07-41.625 47.957 0.53906 92.082 12.023 132.36 34.426 40.277 22.406 73.699 52.488 100.25 90.254"/><path id="d" d="m812.05 318.73c-0.21485 29.859 2.1992 60.879 7.2109 93.078 5.0274 32.199 13.945 62.355 26.762 90.453 12.809 28.109 30.797 50.926 53.965 68.473 23.156 17.547 52.773 26.59 88.848 27.129 36.09-0.53906 65.75-9.582 89-27.129 23.262-17.547 41.359-40.363 54.289-68.473 12.941-28.098 21.949-58.254 27.082-90.453 5.1094-32.199 7.5508-63.219 7.3477-93.078 0.2031-29.84-2.2383-60.863-7.3477-93.062-5.1328-32.199-14.141-62.355-27.082-90.465-12.93-28.098-31.027-50.926-54.289-68.473-23.25-17.551-52.91-26.594-89-27.117-36.074 0.52344-65.691 9.5664-88.848 27.117-23.168 17.547-41.156 40.375-53.965 68.473-12.816 28.109-21.734 58.266-26.762 90.465-5.0117 32.199-7.4258 63.223-7.2109 93.062zm-121.88 0c0.46875-59.871 13.387-113.69 38.77-161.48 25.387-47.773 60.426-85.68 105.13-113.72 44.723-28.027 96.301-42.367 154.77-43.004 58.781 0.63672 110.58 14.977 155.42 43.004 44.848 28.039 79.969 65.945 105.38 113.72 25.418 47.789 38.348 101.61 38.809 161.48-0.4609 59.887-13.391 113.71-38.809 161.48-25.41 47.789-60.531 85.695-105.38 113.72-44.84 28.039-96.641 42.379-155.42 43.016-58.465-0.63672-110.04-14.977-154.77-43.016-44.707-28.027-79.746-65.934-105.13-113.72-25.383-47.773-38.301-101.59-38.77-161.48" fill-rule="evenodd"/><path id="e" d="m1577.8 620.2h-113.53v-602.92h260.54c36.672 0.39453 67.73 8.5859 93.184 24.559 25.438 15.988 44.77 37.34 58.02 64.074 13.25 26.719 19.898 56.418 19.988 89.074-0.9101 45.574-15.828 79.574-44.781 101.99-28.93 22.434-66.43 36.203-112.46 41.301l160.04 281.92h-124.68l-164.69-308.91h7.4414c50.871 0.25391 91.031-10.023 120.49-30.824 29.473-20.797 44.512-53.637 45.133-98.5 0.2891-22.758-3.9023-44.352-12.551-64.754-8.6406-20.414-23.441-37.113-44.383-50.074-20.938-12.977-49.726-19.664-86.359-20.09h-61.398v573.15"/><path id="f" d="m2256.1 620.2h-113.51v-563.85h-120.04v-39.07h353.57v39.07h-120.02v563.85"/><path id="g" d="m2911.1 620.2h-360.08v-602.92h356.35v39.07h-242.83v232.61h228.87v39.086h-228.87v253.07h246.56v39.086"/><path id="h" d="m3226.6 620.2h-113.52v-602.92h346.13v39.07h-232.61v232.61h212.14v39.086h-212.14v292.16"/><path id="i" d="m3750.4 620.2h-113.52v-602.92h113.52v602.92"/><path id="j" d="m4345 620.2h-360.09v-602.92h356.36v39.07h-242.84v232.61h228.88v39.086h-228.88v253.07h246.57v39.086"/><path id="k" d="m4906 620.2h-355.43v-602.92h113.52v555.47h241.91v47.449"/></g></svg>
